<!DOCTYPE svg PUBLIC "-//W3C//DTD SVG 1.1//EN" "http://www.w3.org/Graphics/SVG/1.1/DTD/svg11.dtd">
<!-- Uploaded to: SVG Repo, www.svgrepo.com, Transformed by: SVG Repo Mixer Tools -->
<svg width="256px" height="256px" viewBox="-5.28 -5.28 34.56 34.56" xmlns="http://www.w3.org/2000/svg" fill="#ffffff" stroke="#ffffff" stroke-width="0.00024000000000000003">
<g id="SVGRepo_bgCarrier" stroke-width="0" transform="translate(0,0), scale(1)">
<path transform="translate(-5.28, -5.28), scale(1.08)" d="M16,29.728615714857973C19.212254126301627,29.63281099946835,22.158992226674734,28.329516345530607,24.747003453360648,26.424272789976516C27.515651288386522,24.386048074840065,30.26364704468715,22.00086624643816,31.044933980517776,18.65282778374289C31.852010719082195,15.194272624123386,31.095990771294847,11.347480762451163,28.920310670598504,8.540455156316364C26.89567682183889,5.928306865445601,23.28542974438408,5.64283696876107,20.150396310727338,4.59687985448887C17.136529920395404,3.591348315784799,14.062716147671837,1.395603271392848,11.123868098705216,2.602937706910245C8.207525332023202,3.801026546251686,7.723101015749309,7.58110223141618,6.1858318746592005,10.333787390962238C4.682287696550258,13.026083512165492,2.177730789487964,15.335483026343086,2.2922996212419484,18.417037420242682C2.4156603563510566,21.73506737210994,4.242996784960001,24.84612042742918,6.803954762003167,26.959419950041593C9.349891079698516,29.060323616957362,12.700620549227555,29.82701892233009,16,29.728615714857973" fill="#7ed0ec" strokewidth="0"/>
</g>
<g id="SVGRepo_tracerCarrier" stroke-linecap="round" stroke-linejoin="round" stroke="#CCCCCC" stroke-width="0.24000000000000005"/>
<g id="SVGRepo_iconCarrier"> <g> <path fill="none" d="M0 0h24v24H0z"/> <path d="M11.327 1.612a1 1 0 0 1 1.246-.08l.1.08L23 11h-3v9a1 1 0 0 1-.883.993L19 21h-6.5l2.5-4-3.5-3 4-3L13 9l.5-3-3 3 2.5 2-5 3 3.75 3.5L8.5 21H5a1 1 0 0 1-.993-.883L4 20v-9H1l10.327-9.388z"/> </g> </g>
</svg>