<?xml version="1.0" encoding="UTF-8"?>
<svg xmlns="http://www.w3.org/2000/svg" xmlns:xlink="http://www.w3.org/1999/xlink" viewBox="0 0 185.64 165.12">
  <defs>
    <linearGradient id="linear-gradient" x1="134.6" y1="628.48" x2="37.35" y2="593.68" gradientTransform="translate(0 699.93) scale(1 -1)" gradientUnits="userSpaceOnUse">
      <stop offset="0" stop-color="#1e1e1e"/>
      <stop offset="1" stop-color="#2b2c2b"/>
    </linearGradient>
    <linearGradient id="linear-gradient-2" x1="110" y1="607.96" x2="12.73" y2="580.08" gradientTransform="translate(0 699.93) scale(1 -1)" gradientUnits="userSpaceOnUse">
      <stop offset="0" stop-color="#1a6634"/>
      <stop offset=".84" stop-color="#37a348"/>
      <stop offset=".87" stop-color="#349b47"/>
      <stop offset=".93" stop-color="#2a8842"/>
      <stop offset=".99" stop-color="#1e6835"/>
      <stop offset="1" stop-color="#1a6333"/>
    </linearGradient>
    <linearGradient id="linear-gradient-3" x1="50.92" y1="620" x2="145.53" y2="635.85" gradientTransform="translate(0 699.93) scale(1 -1)" gradientUnits="userSpaceOnUse">
      <stop offset="0" stop-color="#e6e7e7"/>
      <stop offset=".39" stop-color="#bbbdbf"/>
      <stop offset=".5" stop-color="#abadae"/>
      <stop offset=".7" stop-color="#808283"/>
      <stop offset=".94" stop-color="#484b4d"/>
    </linearGradient>
    <linearGradient id="linear-gradient-4" x1="24.66" y1="589.27" x2="-14.86" y2="583.12" xlink:href="#linear-gradient-2"/>
    <linearGradient id="linear-gradient-5" x1="94.32" y1="622.45" x2="39.8" y2="642.35" gradientTransform="translate(0 699.93) scale(1 -1)" gradientUnits="userSpaceOnUse">
      <stop offset="0" stop-color="#504e4e"/>
      <stop offset=".04" stop-color="#5c595a"/>
      <stop offset=".11" stop-color="#7c7b7b"/>
      <stop offset=".18" stop-color="#9f9f9f"/>
      <stop offset=".27" stop-color="#9a9797"/>
      <stop offset=".33" stop-color="#949090"/>
      <stop offset=".4" stop-color="#9f9c9b"/>
      <stop offset=".54" stop-color="#c2c0c0"/>
      <stop offset=".61" stop-color="#bbbaba"/>
      <stop offset=".69" stop-color="#a8a6a6"/>
      <stop offset=".79" stop-color="#888787"/>
      <stop offset=".91" stop-color="#5f5d5d"/>
      <stop offset=".94" stop-color="#504e4e"/>
    </linearGradient>
    <linearGradient id="linear-gradient-6" x1="3.62" y1="607.24" x2="51" y2="590.33" xlink:href="#linear-gradient-3"/>
    <linearGradient id="linear-gradient-7" x1="60.97" y1="629.17" x2="2.07" y2="624.82" xlink:href="#linear-gradient"/>
  </defs>
  <g isolation="isolate">
    <g id="Layer_1" data-name="Layer 1">
      <path d="M185.56,117.91C158.87,59.41,162.68.29,162.68.29c0,0-15.19-4.71-56.42,23.91-16.06,11.19-23.19,14.37-33.23,17.86-5.81,2.02-12.08,3.05-13.12,10.35-1.29,8.96-8.98,37.06-20.61,57.51-11.63,20.45-16.93,36.93-12.64,45.01,0,0-1.6-6.5,12.38-6.13,11.36.27,25.94.92,55.96-8.62,25.64-8.11,53.34-20.46,90.65-22.3l-.08.05Z" fill="url(#linear-gradient)"/>
      <path d="M39.16,109.86c5.42-9.49,10.06-20.66,13.42-30.83,1.32-.4,2.64-.79,3.99-1.33,10.04-3.5,36.4-11.52,52.54-22.76,32.62-22.68,48.91-24.42,54.35-24.21,1.94,22.58,7.4,54.94,22.05,87.09-37.22,1.79-65.06,14.09-90.65,22.3-30.01,9.54-44.54,8.99-55.96,8.62-14.06-.33-12.38,6.13-12.38,6.13-4.27-8.22.95-24.65,12.64-45.01Z" fill="url(#linear-gradient-2)"/>
      <path d="M163.46,30.73c1.05,12.38,3.21,27.76,7.31,44.4-29.68,4.43-51.94,15.85-72.9,23.99-27.12,10.5-40.8,10.45-51.41,10.5-3.74.05-6.27.65-7.95,1.39.22-.38.44-.76.66-1.14,5.42-9.49,10.06-20.66,13.42-30.83,1.32-.4,2.64-.79,3.99-1.33,10.04-3.5,36.4-11.52,52.54-22.76,32.62-22.68,48.91-24.42,54.35-24.21Z" fill="url(#linear-gradient-3)"/>
      <path d="M2.23,136.33c4.78-16.43,15.36-42.44,16.21-48.74,2.19-16.68-6.64-25.11-6.64-25.11,0,0,7.87.55,23.33-1.84,13.42-2.08,22.39-6.08,24.57-7.1-1.45,10.19-9.34,36.64-20.5,56.18-11.57,20.16-16.85,36.5-12.74,44.82.85,2.78,4.4,4.1,4.4,4.1-4.7,5.79-18.79.31-22.45.31-4.46-.03-4.1,3.79-2.69,5.24.36.42.99.93.99.93-6.69-3.26-8.78-13.64-4.39-28.83l-.08.05Z" fill="url(#linear-gradient-4)"/>
      <path d="M106.91,75.78s10.17-19.34,17.57-30.37C141.45,20.07,162.68.29,162.68.29c0,0-2.7,58.72,22.88,117.62-11,.53-78.65-42.13-78.65-42.13Z" fill="#ed1c24"/>
      <path d="M185.56,117.91C158.87,59.41,162.68.29,162.68.29c0,0-15.19-4.71-56.42,23.91-16.06,11.19-23.19,14.37-33.23,17.86-5.81,2.02-12.08,3.05-13.12,10.35-1.29,8.96-8.98,37.06-20.61,57.51-11.63,20.45-16.93,36.93-12.64,45.01,0,0-1.6-6.5,12.38-6.13,11.36.27,25.94.92,55.96-8.62,25.64-8.11,53.34-20.46,90.65-22.3l-.08.05Z" fill="url(#linear-gradient-5)" isolation="isolate" mix-blend-mode="multiply" opacity=".55"/>
      <path d="M18.43,87.6c.14-1.09.27-2.18.33-3.22l33.98-5.06c-3.55,10.03-8.16,21.06-13.5,30.5-1.76,3.05-3.27,5.96-4.7,8.81-5.77,2.26-18.07,6.45-28.42,5.83,5.17-15.01,11.74-31.99,12.39-36.92l-.08.05Z" fill="url(#linear-gradient-6)"/>
      <path d="M50.9,84.3c-6.13,2.59-19.97,7.56-33.12,6.32.38-1.24.58-2.23.66-3.04,2.19-16.68-6.64-25.11-6.64-25.11,0,0,7.87.55,23.33-1.84,13.42-2.08,22.39-6.08,24.57-7.1-.87,6.07-4.03,17.88-8.84,30.67l.05.09Z" fill="url(#linear-gradient-7)"/>
    </g>
  </g>
</svg>